<svg width="20" height="20" viewBox="0 0 20 20" fill="none" xmlns="http://www.w3.org/2000/svg">
<path d="M19.75 9.99998C19.7469 12.3829 18.8726 14.6825 17.2917 16.4656C15.7109 18.2486 13.5326 19.3921 11.1671 19.6806C11.1145 19.6866 11.0611 19.6813 11.0107 19.6651C10.9602 19.649 10.9137 19.6223 10.8743 19.5869C10.8348 19.5514 10.8034 19.508 10.782 19.4596C10.7605 19.4111 10.7496 19.3586 10.75 19.3056V12.25H13C13.1028 12.2502 13.2045 12.2293 13.2989 12.1885C13.3933 12.1478 13.4783 12.088 13.5487 12.013C13.619 11.938 13.6732 11.8494 13.7078 11.7526C13.7424 11.6558 13.7568 11.5529 13.75 11.4503C13.7334 11.2574 13.6444 11.078 13.5009 10.9481C13.3574 10.8181 13.1701 10.7474 12.9765 10.75H10.75V8.49998C10.75 8.10215 10.908 7.72062 11.1893 7.43932C11.4706 7.15801 11.8521 6.99998 12.25 6.99998H13.75C13.8528 7.0002 13.9545 6.97929 14.0489 6.93853C14.1433 6.89777 14.2283 6.83804 14.2987 6.76304C14.369 6.68805 14.4232 6.59939 14.4578 6.50258C14.4924 6.40577 14.5068 6.30288 14.5 6.20029C14.4834 6.0071 14.3941 5.82739 14.2502 5.69742C14.1063 5.56745 13.9185 5.49689 13.7246 5.49998H12.25C11.4543 5.49998 10.6912 5.81605 10.1286 6.37866C9.56603 6.94127 9.24996 7.70433 9.24996 8.49998V10.75H6.99996C6.89714 10.7498 6.79538 10.7707 6.70099 10.8114C6.60659 10.8522 6.52159 10.9119 6.45126 10.9869C6.38092 11.0619 6.32676 11.1506 6.29213 11.2474C6.2575 11.3442 6.24315 11.4471 6.24996 11.5497C6.26655 11.7429 6.35579 11.9226 6.49968 12.0525C6.64357 12.1825 6.8314 12.2531 7.02527 12.25H9.24996V19.3075C9.25028 19.3604 9.2394 19.4128 9.21803 19.4612C9.19666 19.5096 9.16528 19.5529 9.12597 19.5884C9.08665 19.6238 9.04028 19.6505 8.98991 19.6667C8.93954 19.6829 8.8863 19.6883 8.83371 19.6825C6.40498 19.3867 4.1758 18.1899 2.5874 16.3289C0.999005 14.4679 0.167161 12.0785 0.25652 9.63341C0.44402 4.57091 4.54464 0.455289 9.6109 0.258414C10.9225 0.207607 12.231 0.421868 13.4579 0.888381C14.6848 1.35489 15.8051 2.06407 16.7516 2.9735C17.6981 3.88293 18.4515 4.97393 18.9667 6.18123C19.4819 7.38854 19.7483 8.68735 19.75 9.99998Z" fill="#F7F7F6"/>
</svg>
