<svg width="18" height="10" viewBox="0 0 18 10" fill="none" xmlns="http://www.w3.org/2000/svg">
<path d="M17.0307 9.53061C16.961 9.60034 16.8783 9.65566 16.7873 9.6934C16.6962 9.73114 16.5986 9.75057 16.5001 9.75057C16.4015 9.75057 16.3039 9.73114 16.2128 9.6934C16.1218 9.65566 16.0391 9.60034 15.9694 9.53061L9.00005 2.56029L2.03068 9.53061C1.88995 9.67134 1.69907 9.7504 1.50005 9.7504C1.30103 9.7504 1.11016 9.67134 0.969426 9.53061C0.828695 9.38987 0.749634 9.199 0.749634 8.99998C0.749634 8.80096 0.828695 8.61009 0.969426 8.46935L8.46943 0.969354C8.53908 0.899622 8.6218 0.844303 8.71285 0.80656C8.80389 0.768817 8.90149 0.74939 9.00005 0.74939C9.09861 0.74939 9.19621 0.768817 9.28726 0.80656C9.3783 0.844303 9.46102 0.899622 9.53068 0.969354L17.0307 8.46935C17.1004 8.53901 17.1557 8.62173 17.1935 8.71277C17.2312 8.80382 17.2506 8.90142 17.2506 8.99998C17.2506 9.09854 17.2312 9.19614 17.1935 9.28718C17.1557 9.37823 17.1004 9.46095 17.0307 9.53061Z" fill="#1C1812"/>
</svg>
